<svg width="24" height="24" viewBox="0 0 24 24" fill="none" xmlns="http://www.w3.org/2000/svg">
    <path d="M3 3H5L6.5 10H18C19.1046 10 20 10.8954 20 12C20 13.1046 19.1046 14 18 14H8C7.44772 14 7 14.4477 7 15C7 15.5523 7.44772 16 8 16H18C19.1046 16 20 16.8954 20 18C20 19.1046 19.1046 20 18 20H7C5.89543 20 5 19.1046 5 18C5 17.4477 5.44772 17 6 17H18C19.1046 17 20 16.1046 20 15C20 13.8954 19.1046 13 18 13H6.5L5 5H3V3Z" fill="#4A90E2"/>
    <circle cx="8" cy="21" r="1" fill="#FF4D4F"/>
    <circle cx="17" cy="21" r="1" fill="#FF4D4F"/>
</svg>